<?xml version="1.0" encoding="utf-8"?>
<svg version="1.1" id="Layer_1" xmlns="http://www.w3.org/2000/svg" xmlns:xlink="http://www.w3.org/1999/xlink" x="0px" y="0px"
	 viewBox="0 0 2595.76 1890.093" enable-background="new 0 0 2595.76 1890.093" xml:space="preserve">
<symbol  id="_x31_" viewBox="-35.145 -25 70.289 50">
	<path d="M3.255,0c0,0,31.889,18.411,31.89,18.411c-4.516,2.607-10.081,2.507-14.414,0.006c0,0-24.687-14.253-24.687-14.253
		c-9.359,5.346-12.125,5.543-15.108,7.735c0.594,0.343,1.137,0.693,1.665,1.125c2.307,1.888,3.592,7.308-1.936,10.499
		c-4.246,2.451-12.235,2.052-14.991-2.722c-2.009-3.48-0.108-7.399,3.374-9.398c4.344-2.494,9.292-2.544,14.073-5.304
		c3.668-2.117,5.136-4.097,7.321-6.1c-3.66-3.353-5.325-6.393-14.862-8.949c-4.703-1.26-8.086-2.653-9.813-5.644
		c-0.589-1.02-0.91-2.135-0.91-3.27c0-1.236,0.312-2.062,0.818-2.939c2.788-4.83,10.81-5.135,14.991-2.722
		c3.854,2.225,4.858,5.991,3.079,9.097c-0.482,0.841-1.014,1.491-2.808,2.528c2.961,2.176,5.817,2.429,15.107,7.735
		c0,0,24.687-14.253,24.687-14.253c4.316-2.492,9.882-2.611,14.414,0.006C35.144-18.412,3.256-0.001,3.255,0z M-24.956,12.9
		c-3.278,0-6.095,2.691-6.095,4.719c0,4.851,8.157,5.712,10.75,1.54C-18.91,16.918-20.069,12.9-24.956,12.9z M-20.302-19.16
		c-2.599-4.182-10.75-3.298-10.75,1.54c0,2.038,2.827,4.719,6.095,4.719c1.234,0,2.293-0.245,3.09-0.705
		C-19.82-14.788-19.166-17.33-20.302-19.16z"/>
</symbol>
<symbol  id="_x32_" viewBox="-35.145 -25 70.289 50">
	<path d="M-35.145-18.412c4.532-2.616,10.098-2.497,14.414-0.006c0,0,24.687,14.253,24.687,14.253
		c9.29-5.306,12.147-5.56,15.107-7.735c-1.795-1.036-2.327-1.687-2.808-2.528c-1.779-3.106-0.775-6.872,3.079-9.097
		c4.18-2.413,12.202-2.108,14.991,2.722c0.506,0.877,0.818,1.703,0.818,2.939c0,1.135-0.321,2.251-0.91,3.27
		c-1.727,2.991-5.11,4.384-9.813,5.644C14.882-6.394,13.218-3.354,9.558,0c2.185,2.002,3.654,3.982,7.321,6.1
		c4.78,2.76,9.728,2.81,14.073,5.304c3.482,1.999,5.383,5.918,3.374,9.398c-2.756,4.773-10.745,5.173-14.991,2.722
		c-5.528-3.191-4.242-8.611-1.936-10.499c0.528-0.432,1.071-0.782,1.665-1.125c-2.983-2.192-5.748-2.39-15.108-7.735
		c0,0-24.687,14.253-24.687,14.253c-4.333,2.502-9.899,2.602-14.414-0.006c0,0,31.889-18.411,31.89-18.411
		C-3.256-0.001-35.144-18.412-35.145-18.412z M20.302,19.159c2.593,4.172,10.75,3.311,10.75-1.54c0-2.028-2.818-4.719-6.095-4.719
		C20.069,12.9,18.91,16.918,20.302,19.159z M21.867-13.606c0.796,0.46,1.855,0.705,3.09,0.705c3.268,0,6.095-2.681,6.095-4.719
		c0-4.838-8.151-5.722-10.75-1.54C19.166-17.33,19.82-14.788,21.867-13.606z"/>
</symbol>
<g>
	
		<use xlink:href="#_x31_"  width="70.289" height="50" x="-35.145" y="-25" transform="matrix(-0.8027 -0.1404 -0.1404 0.8027 1451.3997 889.5063)" overflow="visible"/>
	
		<use xlink:href="#_x31_"  width="70.289" height="50" x="-35.145" y="-25" transform="matrix(-0.5722 0.5801 0.5801 0.5722 492.1626 65.2228)" overflow="visible"/>
	
		<use xlink:href="#_x31_"  width="70.289" height="50" x="-35.145" y="-25" transform="matrix(0.3501 -0.7358 -0.7358 -0.3501 1244.3154 1043.7229)" overflow="visible"/>
	
		<use xlink:href="#_x31_"  width="70.289" height="50" x="-35.145" y="-25" transform="matrix(-0.734 0.3538 0.3538 0.734 1429.6827 681.2733)" overflow="visible"/>
	
		<use xlink:href="#_x31_"  width="70.289" height="50" x="-35.145" y="-25" transform="matrix(-0.5411 -0.6093 -0.6093 0.5411 2127.1885 1555.2009)" overflow="visible"/>
	
		<use xlink:href="#_x31_"  width="70.289" height="50" x="-35.145" y="-25" transform="matrix(0.5977 -0.5539 -0.5539 -0.5977 2210.0015 1465.5205)" overflow="visible"/>
	
		<use xlink:href="#_x31_"  width="70.289" height="50" x="-35.145" y="-25" transform="matrix(0.6681 0.4665 0.4665 -0.6681 2347.1584 1509.3163)" overflow="visible"/>
	
		<use xlink:href="#_x31_"  width="70.289" height="50" x="-35.145" y="-25" transform="matrix(0.6681 -0.4665 -0.4665 -0.6681 1679.0894 1273.267)" overflow="visible"/>
	
		<use xlink:href="#_x31_"  width="70.289" height="50" x="-35.145" y="-25" transform="matrix(-0.7615 -0.2901 -0.2901 0.7615 1189.8585 1068.1118)" overflow="visible"/>
	
		<use xlink:href="#_x31_"  width="70.289" height="50" x="-35.145" y="-25" transform="matrix(-0.5561 -0.5956 -0.5956 0.5561 2077.6348 1582.8098)" overflow="visible"/>
	
		<use xlink:href="#_x31_"  width="70.289" height="50" x="-35.145" y="-25" transform="matrix(-0.7687 0.2702 0.2702 0.7687 192.9745 155.8537)" overflow="visible"/>
	
		<use xlink:href="#_x31_"  width="70.289" height="50" x="-35.145" y="-25" transform="matrix(0.4367 0.688 0.688 -0.4367 2133.7571 1450.4176)" overflow="visible"/>
	
		<use xlink:href="#_x31_"  width="70.289" height="50" x="-35.145" y="-25" transform="matrix(0.2754 -0.7669 -0.7669 -0.2754 1988.9497 474.1172)" overflow="visible"/>
	
		<use xlink:href="#_x31_"  width="70.289" height="50" x="-35.145" y="-25" transform="matrix(-0.2171 -0.7854 -0.7854 0.2171 1559.8118 766.1154)" overflow="visible"/>
	
		<use xlink:href="#_x31_"  width="70.289" height="50" x="-35.145" y="-25" transform="matrix(0.0952 0.8093 0.8093 -0.0952 1318.2158 1138.3684)" overflow="visible"/>
	
		<use xlink:href="#_x31_"  width="70.289" height="50" x="-35.145" y="-25" transform="matrix(0.8117 0.0713 0.0713 -0.8117 1942.6671 607.0051)" overflow="visible"/>
	
		<use xlink:href="#_x31_"  width="70.289" height="50" x="-35.145" y="-25" transform="matrix(-0.1641 0.7981 0.7981 0.1641 719.2486 692.3641)" overflow="visible"/>
	
		<use xlink:href="#_x31_"  width="70.289" height="50" x="-35.145" y="-25" transform="matrix(-0.0476 0.8135 0.8135 0.0476 1550.8772 654.6249)" overflow="visible"/>
	
		<use xlink:href="#_x31_"  width="70.289" height="50" x="-35.145" y="-25" transform="matrix(-0.2749 0.7671 0.7671 0.2749 1923.9431 1264.0769)" overflow="visible"/>
	
		<use xlink:href="#_x31_"  width="70.289" height="50" x="-35.145" y="-25" transform="matrix(-0.0435 0.8137 0.8137 0.0435 1902.6102 1483.3232)" overflow="visible"/>
	
		<use xlink:href="#_x31_"  width="70.289" height="50" x="-35.145" y="-25" transform="matrix(-0.2735 0.7676 0.7676 0.2735 424.7737 578.5417)" overflow="visible"/>
	
		<use xlink:href="#_x31_"  width="70.289" height="50" x="-35.145" y="-25" transform="matrix(-0.5475 -0.6035 -0.6035 0.5475 349.985 1330.5157)" overflow="visible"/>
	
		<use xlink:href="#_x31_"  width="70.289" height="50" x="-35.145" y="-25" transform="matrix(-0.6748 -0.4568 -0.4568 0.6748 1253.3474 1106.6414)" overflow="visible"/>
	
		<use xlink:href="#_x31_"  width="70.289" height="50" x="-35.145" y="-25" transform="matrix(-0.644 0.4993 0.4993 0.644 1702.0015 746.688)" overflow="visible"/>
	
		<use xlink:href="#_x31_"  width="70.289" height="50" x="-35.145" y="-25" transform="matrix(-0.5149 0.6315 0.6315 0.5149 1887.7305 1412.3345)" overflow="visible"/>
	
		<use xlink:href="#_x31_"  width="70.289" height="50" x="-35.145" y="-25" transform="matrix(-0.6396 -0.5048 -0.5048 0.6396 1560.5613 1283.6766)" overflow="visible"/>
	
		<use xlink:href="#_x31_"  width="70.289" height="50" x="-35.145" y="-25" transform="matrix(0.8081 0.105 0.105 -0.8081 1497.443 1173.8217)" overflow="visible"/>
	
		<use xlink:href="#_x31_"  width="70.289" height="50" x="-35.145" y="-25" transform="matrix(0.7697 -0.2675 -0.2675 -0.7697 890.3112 1204.8981)" overflow="visible"/>
	
		<use xlink:href="#_x31_"  width="70.289" height="50" x="-35.145" y="-25" transform="matrix(0.5305 0.6185 0.6185 -0.5305 123.9323 1624.676)" overflow="visible"/>
	
		<use xlink:href="#_x31_"  width="70.289" height="50" x="-35.145" y="-25" transform="matrix(-0.6875 0.4373 0.4373 0.6875 60.0968 1540.8594)" overflow="visible"/>
	
		<use xlink:href="#_x31_"  width="70.289" height="50" x="-35.145" y="-25" transform="matrix(0.2484 0.7761 0.7761 -0.2484 1011.9858 743.8551)" overflow="visible"/>
	
		<use xlink:href="#_x31_"  width="70.289" height="50" x="-35.145" y="-25" transform="matrix(-0.2618 -0.7717 -0.7717 0.2618 1072.8231 841.4606)" overflow="visible"/>
	
		<use xlink:href="#_x31_"  width="70.289" height="50" x="-35.145" y="-25" transform="matrix(-0.1775 0.7953 0.7953 0.1775 2043.2849 438.8695)" overflow="visible"/>
	
		<use xlink:href="#_x31_"  width="70.289" height="50" x="-35.145" y="-25" transform="matrix(0.0336 -0.8142 -0.8142 -0.0336 619.7626 1324.9554)" overflow="visible"/>
	
		<use xlink:href="#_x31_"  width="70.289" height="50" x="-35.145" y="-25" transform="matrix(0.5435 0.6071 0.6071 -0.5435 2012.1072 574.1766)" overflow="visible"/>
	
		<use xlink:href="#_x31_"  width="70.289" height="50" x="-35.145" y="-25" transform="matrix(-0.6329 -0.5133 -0.5133 0.6329 622.4286 1432.6858)" overflow="visible"/>
	
		<use xlink:href="#_x31_"  width="70.289" height="50" x="-35.145" y="-25" transform="matrix(-0.7784 0.241 0.241 0.7784 2385.7979 226.2558)" overflow="visible"/>
	
		<use xlink:href="#_x31_"  width="70.289" height="50" x="-35.145" y="-25" transform="matrix(0.7385 -0.3444 -0.3444 -0.7385 1123.9258 1081.5691)" overflow="visible"/>
	
		<use xlink:href="#_x31_"  width="70.289" height="50" x="-35.145" y="-25" transform="matrix(0.3374 -0.7417 -0.7417 -0.3374 899.6324 685.8008)" overflow="visible"/>
	
		<use xlink:href="#_x31_"  width="70.289" height="50" x="-35.145" y="-25" transform="matrix(0.2601 0.7722 0.7722 -0.2601 1561.6018 1123.6385)" overflow="visible"/>
	
		<use xlink:href="#_x31_"  width="70.289" height="50" x="-35.145" y="-25" transform="matrix(0.0768 -0.8112 -0.8112 -0.0768 672.6738 1482.7795)" overflow="visible"/>
	
		<use xlink:href="#_x31_"  width="70.289" height="50" x="-35.145" y="-25" transform="matrix(0.3196 -0.7495 -0.7495 -0.3196 976.17 980.6627)" overflow="visible"/>
	
		<use xlink:href="#_x31_"  width="70.289" height="50" x="-35.145" y="-25" transform="matrix(-0.1933 0.7916 0.7916 0.1933 57.3525 233.7884)" overflow="visible"/>
	
		<use xlink:href="#_x31_"  width="70.289" height="50" x="-35.145" y="-25" transform="matrix(0.7815 -0.2309 -0.2309 -0.7815 1007.3935 1139.8477)" overflow="visible"/>
	
		<use xlink:href="#_x31_"  width="70.289" height="50" x="-35.145" y="-25" transform="matrix(-0.8064 -0.1169 -0.1169 0.8064 1303.1691 749.6)" overflow="visible"/>
	
		<use xlink:href="#_x31_"  width="70.289" height="50" x="-35.145" y="-25" transform="matrix(-0.1937 0.7915 0.7915 0.1937 2069.2122 1350.7283)" overflow="visible"/>
	
		<use xlink:href="#_x31_"  width="70.289" height="50" x="-35.145" y="-25" transform="matrix(-0.7121 0.396 0.396 0.7121 469.0064 1348.4991)" overflow="visible"/>
	
		<use xlink:href="#_x31_"  width="70.289" height="50" x="-35.145" y="-25" transform="matrix(-0.0182 0.8146 0.8146 0.0182 327.0878 104.2969)" overflow="visible"/>
	
		<use xlink:href="#_x31_"  width="70.289" height="50" x="-35.145" y="-25" transform="matrix(0.6453 0.4976 0.4976 -0.6453 158.4486 473.4467)" overflow="visible"/>
	
		<use xlink:href="#_x31_"  width="70.289" height="50" x="-35.145" y="-25" transform="matrix(-0.552 0.5994 0.5994 0.552 2546.208 1624.863)" overflow="visible"/>
	
		<use xlink:href="#_x31_"  width="70.289" height="50" x="-35.145" y="-25" transform="matrix(-0.7874 -0.2098 -0.2098 0.7874 1431.0178 751.6371)" overflow="visible"/>
	
		<use xlink:href="#_x31_"  width="70.289" height="50" x="-35.145" y="-25" transform="matrix(-0.7239 -0.3741 -0.3741 0.7239 92.2573 1723.5551)" overflow="visible"/>
	
		<use xlink:href="#_x31_"  width="70.289" height="50" x="-35.145" y="-25" transform="matrix(0.7782 -0.2416 -0.2416 -0.7782 593.9435 1651.8947)" overflow="visible"/>
	
		<use xlink:href="#_x31_"  width="70.289" height="50" x="-35.145" y="-25" transform="matrix(-0.5108 -0.6349 -0.6349 0.5108 1890.0452 1348.5184)" overflow="visible"/>
	
		<use xlink:href="#_x31_"  width="70.289" height="50" x="-35.145" y="-25" transform="matrix(0.7946 0.1805 0.1805 -0.7946 779.8506 1211.0155)" overflow="visible"/>
	
		<use xlink:href="#_x31_"  width="70.289" height="50" x="-35.145" y="-25" transform="matrix(0.7605 0.2926 0.2926 -0.7605 2245.658 236.1452)" overflow="visible"/>
	
		<use xlink:href="#_x31_"  width="70.289" height="50" x="-35.145" y="-25" transform="matrix(-0.6452 -0.4977 -0.4977 0.6452 1029.9663 935.7488)" overflow="visible"/>
	
		<use xlink:href="#_x31_"  width="70.289" height="50" x="-35.145" y="-25" transform="matrix(-0.4559 0.6754 0.6754 0.4559 1871.5697 485.5904)" overflow="visible"/>
	
		<use xlink:href="#_x31_"  width="70.289" height="50" x="-35.145" y="-25" transform="matrix(-0.4668 -0.6679 -0.6679 0.4668 1622.7859 730.9362)" overflow="visible"/>
	
		<use xlink:href="#_x31_"  width="70.289" height="50" x="-35.145" y="-25" transform="matrix(0.5153 0.6312 0.6312 -0.5153 2232.0066 1524.2644)" overflow="visible"/>
	
		<use xlink:href="#_x31_"  width="70.289" height="50" x="-35.145" y="-25" transform="matrix(-0.767 0.2752 0.2752 0.767 1801.011 1266.932)" overflow="visible"/>
	
		<use xlink:href="#_x31_"  width="70.289" height="50" x="-35.145" y="-25" transform="matrix(0.807 -0.1131 -0.1131 -0.807 514.5039 1813.2288)" overflow="visible"/>
	
		<use xlink:href="#_x31_"  width="70.289" height="50" x="-35.145" y="-25" transform="matrix(-0.6275 0.5198 0.5198 0.6275 1814.369 687.6066)" overflow="visible"/>
	
		<use xlink:href="#_x31_"  width="70.289" height="50" x="-35.145" y="-25" transform="matrix(0.3037 -0.7561 -0.7561 -0.3037 726.9643 1189.5647)" overflow="visible"/>
	
		<use xlink:href="#_x31_"  width="70.289" height="50" x="-35.145" y="-25" transform="matrix(-0.38 0.7208 0.7208 0.38 199.3891 429.7253)" overflow="visible"/>
	
		<use xlink:href="#_x31_"  width="70.289" height="50" x="-35.145" y="-25" transform="matrix(-0.2369 0.7797 0.7797 0.2369 234.7883 66.4215)" overflow="visible"/>
	
		<use xlink:href="#_x31_"  width="70.289" height="50" x="-35.145" y="-25" transform="matrix(-0.1758 -0.7957 -0.7957 0.1758 1616.2767 673.0558)" overflow="visible"/>
	
		<use xlink:href="#_x31_"  width="70.289" height="50" x="-35.145" y="-25" transform="matrix(0.7967 -0.1712 -0.1712 -0.7967 1749.653 645.4095)" overflow="visible"/>
	
		<use xlink:href="#_x31_"  width="70.289" height="50" x="-35.145" y="-25" transform="matrix(0.7348 -0.3522 -0.3522 -0.7348 837.2198 655.1757)" overflow="visible"/>
	
		<use xlink:href="#_x31_"  width="70.289" height="50" x="-35.145" y="-25" transform="matrix(-0.5744 -0.578 -0.578 0.5744 2274.1504 1465.4926)" overflow="visible"/>
	
		<use xlink:href="#_x31_"  width="70.289" height="50" x="-35.145" y="-25" transform="matrix(0.0424 0.8137 0.8137 -0.0424 1447.2396 821.1368)" overflow="visible"/>
	
		<use xlink:href="#_x31_"  width="70.289" height="50" x="-35.145" y="-25" transform="matrix(-0.6145 0.5351 0.5351 0.6145 263.9189 1417.6543)" overflow="visible"/>
	
		<use xlink:href="#_x31_"  width="70.289" height="50" x="-35.145" y="-25" transform="matrix(-0.0256 0.8144 0.8144 0.0256 899.0835 755.7839)" overflow="visible"/>
	
		<use xlink:href="#_x31_"  width="70.289" height="50" x="-35.145" y="-25" transform="matrix(-0.5751 -0.5772 -0.5772 0.5751 1736.8441 1304.726)" overflow="visible"/>
	
		<use xlink:href="#_x31_"  width="70.289" height="50" x="-35.145" y="-25" transform="matrix(0.3527 -0.7346 -0.7346 -0.3527 1785.8893 1411.5868)" overflow="visible"/>
	
		<use xlink:href="#_x31_"  width="70.289" height="50" x="-35.145" y="-25" transform="matrix(0.8111 0.0786 0.0786 -0.8111 1442.6809 1068.2566)" overflow="visible"/>
	
		<use xlink:href="#_x31_"  width="70.289" height="50" x="-35.145" y="-25" transform="matrix(0.6568 0.4822 0.4822 -0.6568 708.3808 1616.9849)" overflow="visible"/>
	
		<use xlink:href="#_x31_"  width="70.289" height="50" x="-35.145" y="-25" transform="matrix(-0.1652 0.7979 0.7979 0.1652 1073.1344 1044.4893)" overflow="visible"/>
	
		<use xlink:href="#_x31_"  width="70.289" height="50" x="-35.145" y="-25" transform="matrix(-0.8115 0.0739 0.0739 0.8115 203.8403 1458.5887)" overflow="visible"/>
	
		<use xlink:href="#_x31_"  width="70.289" height="50" x="-35.145" y="-25" transform="matrix(0.8092 0.0958 0.0958 -0.8092 2268.7395 1657.9423)" overflow="visible"/>
	
		<use xlink:href="#_x31_"  width="70.289" height="50" x="-35.145" y="-25" transform="matrix(0.7548 -0.307 -0.307 -0.7548 1884.077 646.2156)" overflow="visible"/>
	
		<use xlink:href="#_x31_"  width="70.289" height="50" x="-35.145" y="-25" transform="matrix(0.2102 -0.7873 -0.7873 -0.2102 606.3478 368.7115)" overflow="visible"/>
	
		<use xlink:href="#_x31_"  width="70.289" height="50" x="-35.145" y="-25" transform="matrix(0.4017 0.7089 0.7089 -0.4017 2289.407 411.5021)" overflow="visible"/>
	
		<use xlink:href="#_x31_"  width="70.289" height="50" x="-35.145" y="-25" transform="matrix(-0.7828 -0.2262 -0.2262 0.7828 1368.2152 769.5114)" overflow="visible"/>
	
		<use xlink:href="#_x31_"  width="70.289" height="50" x="-35.145" y="-25" transform="matrix(0.7668 0.2757 0.2757 -0.7668 411.1884 508.3157)" overflow="visible"/>
	
		<use xlink:href="#_x31_"  width="70.289" height="50" x="-35.145" y="-25" transform="matrix(-0.8086 0.1008 0.1008 0.8086 1835.964 1378.4816)" overflow="visible"/>
	
		<use xlink:href="#_x31_"  width="70.289" height="50" x="-35.145" y="-25" transform="matrix(-0.109 -0.8075 -0.8075 0.109 1069.1635 773.2077)" overflow="visible"/>
	
		<use xlink:href="#_x31_"  width="70.289" height="50" x="-35.145" y="-25" transform="matrix(0.2039 0.7889 0.7889 -0.2039 1571.2554 1180.5549)" overflow="visible"/>
	
		<use xlink:href="#_x31_"  width="70.289" height="50" x="-35.145" y="-25" transform="matrix(0.7049 -0.4087 -0.4087 -0.7049 2174.7124 374.6795)" overflow="visible"/>
	
		<use xlink:href="#_x31_"  width="70.289" height="50" x="-35.145" y="-25" transform="matrix(0.7198 -0.3818 -0.3818 -0.7198 136.3995 339.1481)" overflow="visible"/>
	
		<use xlink:href="#_x31_"  width="70.289" height="50" x="-35.145" y="-25" transform="matrix(0.2971 0.7588 0.7588 -0.2971 2071.4917 1424.5649)" overflow="visible"/>
	
		<use xlink:href="#_x31_"  width="70.289" height="50" x="-35.145" y="-25" transform="matrix(0.4622 0.6711 0.6711 -0.4622 1199.2582 992.5764)" overflow="visible"/>
	
		<use xlink:href="#_x31_"  width="70.289" height="50" x="-35.145" y="-25" transform="matrix(-0.8074 -0.1098 -0.1098 0.8074 2002.7375 1303.3882)" overflow="visible"/>
	
		<use xlink:href="#_x31_"  width="70.289" height="50" x="-35.145" y="-25" transform="matrix(0.728 0.3661 0.3661 -0.728 2483.4006 1585.8866)" overflow="visible"/>
	
		<use xlink:href="#_x31_"  width="70.289" height="50" x="-35.145" y="-25" transform="matrix(0.7322 0.3576 0.3576 -0.7322 1138.2363 873.5441)" overflow="visible"/>
	
		<use xlink:href="#_x31_"  width="70.289" height="50" x="-35.145" y="-25" transform="matrix(0.2799 0.7653 0.7653 -0.2799 1549.5731 1228.0404)" overflow="visible"/>
	
		<use xlink:href="#_x31_"  width="70.289" height="50" x="-35.145" y="-25" transform="matrix(-0.7512 -0.3158 -0.3158 0.7512 2187.5671 1571.1865)" overflow="visible"/>
	
		<use xlink:href="#_x31_"  width="70.289" height="50" x="-35.145" y="-25" transform="matrix(-0.8075 -0.1089 -0.1089 0.8075 125.3759 1559.2412)" overflow="visible"/>
	
		<use xlink:href="#_x31_"  width="70.289" height="50" x="-35.145" y="-25" transform="matrix(0.667 -0.4681 -0.4681 -0.667 1700.0227 520.4137)" overflow="visible"/>
	
		<use xlink:href="#_x31_"  width="70.289" height="50" x="-35.145" y="-25" transform="matrix(-0.7594 -0.2954 -0.2954 0.7594 457.2515 112.6992)" overflow="visible"/>
	
		<use xlink:href="#_x31_"  width="70.289" height="50" x="-35.145" y="-25" transform="matrix(0.7695 -0.268 -0.268 -0.7695 222.6292 511.0906)" overflow="visible"/>
	
		<use xlink:href="#_x31_"  width="70.289" height="50" x="-35.145" y="-25" transform="matrix(-0.7937 -0.1843 -0.1843 0.7937 1396.7249 1018.5077)" overflow="visible"/>
	
		<use xlink:href="#_x31_"  width="70.289" height="50" x="-35.145" y="-25" transform="matrix(-0.1515 -0.8006 -0.8006 0.1515 568.371 1787.3237)" overflow="visible"/>
	
		<use xlink:href="#_x31_"  width="70.289" height="50" x="-35.145" y="-25" transform="matrix(0.7999 0.1552 0.1552 -0.7999 68.0555 367.5992)" overflow="visible"/>
	
		<use xlink:href="#_x31_"  width="70.289" height="50" x="-35.145" y="-25" transform="matrix(-0.4474 -0.6811 -0.6811 0.4474 548.5529 1724.1415)" overflow="visible"/>
	
		<use xlink:href="#_x31_"  width="70.289" height="50" x="-35.145" y="-25" transform="matrix(-0.0346 0.8141 0.8141 0.0346 2410.2473 339.7098)" overflow="visible"/>
	
		<use xlink:href="#_x31_"  width="70.289" height="50" x="-35.145" y="-25" transform="matrix(0.8092 0.0956 0.0956 -0.8092 1005.1317 1066.4565)" overflow="visible"/>
	
		<use xlink:href="#_x31_"  width="70.289" height="50" x="-35.145" y="-25" transform="matrix(0.8122 0.0658 0.0658 -0.8122 568.6985 632.9445)" overflow="visible"/>
	
		<use xlink:href="#_x31_"  width="70.289" height="50" x="-35.145" y="-25" transform="matrix(0.1323 -0.804 -0.804 -0.1323 163.6342 392.0186)" overflow="visible"/>
	
		<use xlink:href="#_x31_"  width="70.289" height="50" x="-35.145" y="-25" transform="matrix(0.2615 -0.7718 -0.7718 -0.2615 1065.3528 1111.8876)" overflow="visible"/>
	
		<use xlink:href="#_x31_"  width="70.289" height="50" x="-35.145" y="-25" transform="matrix(0.4762 -0.6612 -0.6612 -0.4762 1819.309 455.1857)" overflow="visible"/>
	
		<use xlink:href="#_x31_"  width="70.289" height="50" x="-35.145" y="-25" transform="matrix(0.7498 -0.319 -0.319 -0.7498 2095.553 470.3573)" overflow="visible"/>
	
		<use xlink:href="#_x31_"  width="70.289" height="50" x="-35.145" y="-25" transform="matrix(0.2671 0.7698 0.7698 -0.2671 294.3776 542.1493)" overflow="visible"/>
	
		<use xlink:href="#_x31_"  width="70.289" height="50" x="-35.145" y="-25" transform="matrix(-0.7171 0.3869 0.3869 0.7171 935.2743 864.3169)" overflow="visible"/>
	
		<use xlink:href="#_x31_"  width="70.289" height="50" x="-35.145" y="-25" transform="matrix(-0.0088 -0.8148 -0.8148 0.0088 777.8561 725.1362)" overflow="visible"/>
	
		<use xlink:href="#_x31_"  width="70.289" height="50" x="-35.145" y="-25" transform="matrix(-0.7862 0.2142 0.2142 0.7862 684.618 394.6752)" overflow="visible"/>
	
		<use xlink:href="#_x31_"  width="70.289" height="50" x="-35.145" y="-25" transform="matrix(-0.1586 -0.7993 -0.7993 0.1586 1432.1639 1206.2233)" overflow="visible"/>
	
		<use xlink:href="#_x31_"  width="70.289" height="50" x="-35.145" y="-25" transform="matrix(0.7695 0.268 0.268 -0.7695 1129.7673 808.004)" overflow="visible"/>
	
		<use xlink:href="#_x31_"  width="70.289" height="50" x="-35.145" y="-25" transform="matrix(0.4075 0.7057 0.7057 -0.4075 2307.574 1600.9705)" overflow="visible"/>
	
		<use xlink:href="#_x31_"  width="70.289" height="50" x="-35.145" y="-25" transform="matrix(-0.7467 0.3263 0.3263 0.7467 1676.501 1348.2906)" overflow="visible"/>
	
		<use xlink:href="#_x31_"  width="70.289" height="50" x="-35.145" y="-25" transform="matrix(0.7522 0.3133 0.3133 -0.7522 1514.4287 1035.8048)" overflow="visible"/>
	
		<use xlink:href="#_x31_"  width="70.289" height="50" x="-35.145" y="-25" transform="matrix(0.7209 -0.3798 -0.3798 -0.7209 1930.6965 462.5138)" overflow="visible"/>
	
		<use xlink:href="#_x31_"  width="70.289" height="50" x="-35.145" y="-25" transform="matrix(0.3329 -0.7438 -0.7438 -0.3329 550.0588 1434.2867)" overflow="visible"/>
	
		<use xlink:href="#_x31_"  width="70.289" height="50" x="-35.145" y="-25" transform="matrix(0.5329 -0.6164 -0.6164 -0.5329 1721.1321 582.0026)" overflow="visible"/>
	
		<use xlink:href="#_x31_"  width="70.289" height="50" x="-35.145" y="-25" transform="matrix(0.7694 -0.2685 -0.2685 -0.7694 2208.1726 310.9783)" overflow="visible"/>
	
		<use xlink:href="#_x31_"  width="70.289" height="50" x="-35.145" y="-25" transform="matrix(-0.764 0.2834 0.2834 0.764 1755.5311 715.6979)" overflow="visible"/>
	
		<use xlink:href="#_x31_"  width="70.289" height="50" x="-35.145" y="-25" transform="matrix(0.6249 -0.5229 -0.5229 -0.6249 297.9997 53.9188)" overflow="visible"/>
	
		<use xlink:href="#_x31_"  width="70.289" height="50" x="-35.145" y="-25" transform="matrix(0.8144 0.0265 0.0265 -0.8144 1240.2345 783.6317)" overflow="visible"/>
	
		<use xlink:href="#_x31_"  width="70.289" height="50" x="-35.145" y="-25" transform="matrix(0.734 -0.3538 -0.3538 -0.734 1492.2871 639.4194)" overflow="visible"/>
	
		<use xlink:href="#_x31_"  width="70.289" height="50" x="-35.145" y="-25" transform="matrix(0.3179 -0.7503 -0.7503 -0.3179 2033.1097 509.1361)" overflow="visible"/>
	
		<use xlink:href="#_x31_"  width="70.289" height="50" x="-35.145" y="-25" transform="matrix(-0.799 -0.16 -0.16 0.799 1562.9501 592.0275)" overflow="visible"/>
	
		<use xlink:href="#_x31_"  width="70.289" height="50" x="-35.145" y="-25" transform="matrix(0.6098 -0.5405 -0.5405 -0.6098 2005.9474 1422.8361)" overflow="visible"/>
	
		<use xlink:href="#_x31_"  width="70.289" height="50" x="-35.145" y="-25" transform="matrix(0.4884 -0.6522 -0.6522 -0.4884 825.5592 1240.7671)" overflow="visible"/>
	
		<use xlink:href="#_x31_"  width="70.289" height="50" x="-35.145" y="-25" transform="matrix(0.6494 0.4922 0.4922 -0.6494 1550.0275 832.1733)" overflow="visible"/>
	
		<use xlink:href="#_x31_"  width="70.289" height="50" x="-35.145" y="-25" transform="matrix(0.1856 0.7934 0.7934 -0.1856 2280.5107 283.0375)" overflow="visible"/>
	
		<use xlink:href="#_x31_"  width="70.289" height="50" x="-35.145" y="-25" transform="matrix(0.5783 -0.574 -0.574 -0.5783 204.1934 1385.4178)" overflow="visible"/>
	
		<use xlink:href="#_x31_"  width="70.289" height="50" x="-35.145" y="-25" transform="matrix(-0.4228 0.6966 0.6966 0.4228 526.716 462.9921)" overflow="visible"/>
	
		<use xlink:href="#_x31_"  width="70.289" height="50" x="-35.145" y="-25" transform="matrix(0.3765 0.7227 0.7227 -0.3765 1617.3602 614.3132)" overflow="visible"/>
	
		<use xlink:href="#_x31_"  width="70.289" height="50" x="-35.145" y="-25" transform="matrix(0.475 0.6621 0.6621 -0.475 642.346 156.6672)" overflow="visible"/>
	
		<use xlink:href="#_x31_"  width="70.289" height="50" x="-35.145" y="-25" transform="matrix(0.7911 0.1954 0.1954 -0.7911 1501.865 860.6719)" overflow="visible"/>
	
		<use xlink:href="#_x31_"  width="70.289" height="50" x="-35.145" y="-25" transform="matrix(0.3118 0.7528 0.7528 -0.3118 145.7124 1684.6941)" overflow="visible"/>
	
		<use xlink:href="#_x31_"  width="70.289" height="50" x="-35.145" y="-25" transform="matrix(0.2138 0.7863 0.7863 -0.2138 352.1031 497.8866)" overflow="visible"/>
	
		<use xlink:href="#_x31_"  width="70.289" height="50" x="-35.145" y="-25" transform="matrix(0.6513 0.4897 0.4897 -0.6513 691.4872 640.0532)" overflow="visible"/>
	
		<use xlink:href="#_x31_"  width="70.289" height="50" x="-35.145" y="-25" transform="matrix(-0.6232 0.525 0.525 0.6232 950.3571 1174.7872)" overflow="visible"/>
	
		<use xlink:href="#_x31_"  width="70.289" height="50" x="-35.145" y="-25" transform="matrix(0.4508 0.6788 0.6788 -0.4508 1791.6073 588.8362)" overflow="visible"/>
	
		<use xlink:href="#_x31_"  width="70.289" height="50" x="-35.145" y="-25" transform="matrix(0.4545 0.6763 0.6763 -0.4545 1339.2051 1012.7319)" overflow="visible"/>
	
		<use xlink:href="#_x31_"  width="70.289" height="50" x="-35.145" y="-25" transform="matrix(0.026 0.8144 0.8144 -0.026 129.9841 261.1022)" overflow="visible"/>
	
		<use xlink:href="#_x31_"  width="70.289" height="50" x="-35.145" y="-25" transform="matrix(0.6115 -0.5385 -0.5385 -0.6115 682.5274 1294.7605)" overflow="visible"/>
	
		<use xlink:href="#_x31_"  width="70.289" height="50" x="-35.145" y="-25" transform="matrix(-0.257 -0.7733 -0.7733 0.257 1861.8312 1230.88)" overflow="visible"/>
	
		<use xlink:href="#_x31_"  width="70.289" height="50" x="-35.145" y="-25" transform="matrix(0.6398 0.5046 0.5046 -0.6398 951.6283 1099.8463)" overflow="visible"/>
	
		<use xlink:href="#_x31_"  width="70.289" height="50" x="-35.145" y="-25" transform="matrix(0.3458 0.7378 0.7378 -0.3458 2036.5333 1483.9214)" overflow="visible"/>
	
		<use xlink:href="#_x31_"  width="70.289" height="50" x="-35.145" y="-25" transform="matrix(0.6484 -0.4935 -0.4935 -0.6484 1088.5597 975.1268)" overflow="visible"/>
	
		<use xlink:href="#_x31_"  width="70.289" height="50" x="-35.145" y="-25" transform="matrix(-0.1695 -0.797 -0.797 0.1695 1324.413 879.2123)" overflow="visible"/>
	
		<use xlink:href="#_x31_"  width="70.289" height="50" x="-35.145" y="-25" transform="matrix(0.8148 -0.0112 -0.0112 -0.8148 361.2993 561.139)" overflow="visible"/>
	
		<use xlink:href="#_x31_"  width="70.289" height="50" x="-35.145" y="-25" transform="matrix(0.1503 0.8009 0.8009 -0.1503 1967.4879 1523.4368)" overflow="visible"/>
	
		<use xlink:href="#_x31_"  width="70.289" height="50" x="-35.145" y="-25" transform="matrix(-0.1934 0.7916 0.7916 0.1934 1617.6361 1237.9479)" overflow="visible"/>
	
		<use xlink:href="#_x31_"  width="70.289" height="50" x="-35.145" y="-25" transform="matrix(-0.775 0.2517 0.2517 0.775 2061.5071 313.9202)" overflow="visible"/>
	
		<use xlink:href="#_x31_"  width="70.289" height="50" x="-35.145" y="-25" transform="matrix(-0.5918 0.5601 0.5601 0.5918 2232.7273 378.8304)" overflow="visible"/>
	
		<use xlink:href="#_x31_"  width="70.289" height="50" x="-35.145" y="-25" transform="matrix(0.3054 0.7555 0.7555 -0.3054 559.3688 1270.8708)" overflow="visible"/>
	
		<use xlink:href="#_x31_"  width="70.289" height="50" x="-35.145" y="-25" transform="matrix(-0.7537 0.3097 0.3097 0.7537 735.1912 609.0127)" overflow="visible"/>
	
		<use xlink:href="#_x31_"  width="70.289" height="50" x="-35.145" y="-25" transform="matrix(0.7691 0.2692 0.2692 -0.7691 591.4778 1485.3368)" overflow="visible"/>
	
		<use xlink:href="#_x31_"  width="70.289" height="50" x="-35.145" y="-25" transform="matrix(0.7029 0.4123 0.4123 -0.7029 1322.8293 815.8898)" overflow="visible"/>
	
		<use xlink:href="#_x31_"  width="70.289" height="50" x="-35.145" y="-25" transform="matrix(0.6954 -0.4247 -0.4247 -0.6954 260.5388 1822.9877)" overflow="visible"/>
	
		<use xlink:href="#_x31_"  width="70.289" height="50" x="-35.145" y="-25" transform="matrix(0.7964 0.1726 0.1726 -0.7964 1686.7784 687.3748)" overflow="visible"/>
	
		<use xlink:href="#_x31_"  width="70.289" height="50" x="-35.145" y="-25" transform="matrix(0.2847 0.7635 0.7635 -0.2847 1572.016 1062.2864)" overflow="visible"/>
	
		<use xlink:href="#_x31_"  width="70.289" height="50" x="-35.145" y="-25" transform="matrix(0.0128 0.8147 0.8147 -0.0128 2412.9102 1543.8215)" overflow="visible"/>
	
		<use xlink:href="#_x31_"  width="70.289" height="50" x="-35.145" y="-25" transform="matrix(-0.5227 -0.6251 -0.6251 0.5227 1276.8198 998.1101)" overflow="visible"/>
	
		<use xlink:href="#_x31_"  width="70.289" height="50" x="-35.145" y="-25" transform="matrix(-0.3953 0.7126 0.7126 0.3953 709.1805 328.5848)" overflow="visible"/>
	
		<use xlink:href="#_x31_"  width="70.289" height="50" x="-35.145" y="-25" transform="matrix(0.168 0.7973 0.7973 -0.168 1268.1525 831.1268)" overflow="visible"/>
	
		<use xlink:href="#_x31_"  width="70.289" height="50" x="-35.145" y="-25" transform="matrix(-0.8117 0.0716 0.0716 0.8117 2316.9219 228.1094)" overflow="visible"/>
	
		<use xlink:href="#_x32_"  width="70.289" height="50" x="-35.145" y="-25" transform="matrix(0.4278 -0.6935 -0.6935 -0.4278 547.7882 85.255)" overflow="visible"/>
	
		<use xlink:href="#_x32_"  width="70.289" height="50" x="-35.145" y="-25" transform="matrix(-0.2114 0.787 0.787 0.2114 193.35 1732.0283)" overflow="visible"/>
	
		<use xlink:href="#_x32_"  width="70.289" height="50" x="-35.145" y="-25" transform="matrix(0.5671 -0.5852 -0.5852 -0.5671 1793.3885 1335.0277)" overflow="visible"/>
	
		<use xlink:href="#_x32_"  width="70.289" height="50" x="-35.145" y="-25" transform="matrix(-0.8064 -0.1168 -0.1168 0.8064 1859.4645 1299.743)" overflow="visible"/>
	
		<use xlink:href="#_x32_"  width="70.289" height="50" x="-35.145" y="-25" transform="matrix(-0.7107 -0.3986 -0.3986 0.7107 2399.8606 1661.3734)" overflow="visible"/>
	
		<use xlink:href="#_x32_"  width="70.289" height="50" x="-35.145" y="-25" transform="matrix(-0.1798 0.7948 0.7948 0.1798 93.994 302.9909)" overflow="visible"/>
	
		<use xlink:href="#_x32_"  width="70.289" height="50" x="-35.145" y="-25" transform="matrix(-0.8144 0.0259 0.0259 0.8144 1822.5677 632.0291)" overflow="visible"/>
	
		<use xlink:href="#_x32_"  width="70.289" height="50" x="-35.145" y="-25" transform="matrix(-0.8112 -0.0767 -0.0767 0.8112 2335.5786 1661.9978)" overflow="visible"/>
	
		<use xlink:href="#_x32_"  width="70.289" height="50" x="-35.145" y="-25" transform="matrix(-0.8067 0.1152 0.1152 0.8067 2475.0186 1647.5685)" overflow="visible"/>
	
		<use xlink:href="#_x32_"  width="70.289" height="50" x="-35.145" y="-25" transform="matrix(-0.7761 0.2483 0.2483 0.7761 1237.1576 945.4844)" overflow="visible"/>
	
		<use xlink:href="#_x32_"  width="70.289" height="50" x="-35.145" y="-25" transform="matrix(-0.6345 0.5112 0.5112 0.6345 590.855 479.6098)" overflow="visible"/>
	
		<use xlink:href="#_x32_"  width="70.289" height="50" x="-35.145" y="-25" transform="matrix(-0.1724 -0.7964 -0.7964 0.1724 678.1315 1224.2882)" overflow="visible"/>
	
		<use xlink:href="#_x32_"  width="70.289" height="50" x="-35.145" y="-25" transform="matrix(-0.4137 -0.702 -0.702 0.4137 2287.5479 340.6833)" overflow="visible"/>
	
		<use xlink:href="#_x32_"  width="70.289" height="50" x="-35.145" y="-25" transform="matrix(0.762 -0.2887 -0.2887 -0.762 1603.7001 807.6669)" overflow="visible"/>
	
		<use xlink:href="#_x32_"  width="70.289" height="50" x="-35.145" y="-25" transform="matrix(-0.7198 0.3819 0.3819 0.7198 2082.9832 534.019)" overflow="visible"/>
	
		<use xlink:href="#_x32_"  width="70.289" height="50" x="-35.145" y="-25" transform="matrix(-0.7871 -0.2107 -0.2107 0.7871 886.6778 822.715)" overflow="visible"/>
	
		<use xlink:href="#_x32_"  width="70.289" height="50" x="-35.145" y="-25" transform="matrix(0.7738 -0.2554 -0.2554 -0.7738 2467.8364 235.983)" overflow="visible"/>
	
		<use xlink:href="#_x32_"  width="70.289" height="50" x="-35.145" y="-25" transform="matrix(-0.5841 -0.5682 -0.5682 0.5841 974.3802 911.7446)" overflow="visible"/>
	
		<use xlink:href="#_x32_"  width="70.289" height="50" x="-35.145" y="-25" transform="matrix(0.5161 0.6305 0.6305 -0.5161 896.4125 1136.6869)" overflow="visible"/>
	
		<use xlink:href="#_x32_"  width="70.289" height="50" x="-35.145" y="-25" transform="matrix(-0.798 -0.1646 -0.1646 0.798 2053.1692 375.9769)" overflow="visible"/>
	
		<use xlink:href="#_x32_"  width="70.289" height="50" x="-35.145" y="-25" transform="matrix(-0.6585 0.4799 0.4799 0.6585 2107.9348 402.7319)" overflow="visible"/>
	
		<use xlink:href="#_x32_"  width="70.289" height="50" x="-35.145" y="-25" transform="matrix(0.727 -0.368 -0.368 -0.727 746.8201 1267.6718)" overflow="visible"/>
	
		<use xlink:href="#_x32_"  width="70.289" height="50" x="-35.145" y="-25" transform="matrix(0.4697 0.6659 0.6659 -0.4697 1193.1053 829.864)" overflow="visible"/>
	
		<use xlink:href="#_x32_"  width="70.289" height="50" x="-35.145" y="-25" transform="matrix(0.7183 0.3847 0.3847 -0.7183 1641.3466 556.9943)" overflow="visible"/>
	
		<use xlink:href="#_x32_"  width="70.289" height="50" x="-35.145" y="-25" transform="matrix(-0.1468 -0.8015 -0.8015 0.1468 2127.7839 338.8111)" overflow="visible"/>
	
		<use xlink:href="#_x32_"  width="70.289" height="50" x="-35.145" y="-25" transform="matrix(0.7925 0.1894 0.1894 -0.7925 1940.2126 1431.2009)" overflow="visible"/>
	
		<use xlink:href="#_x32_"  width="70.289" height="50" x="-35.145" y="-25" transform="matrix(0.0724 -0.8116 -0.8116 -0.0724 1761.9078 536.9004)" overflow="visible"/>
	
		<use xlink:href="#_x32_"  width="70.289" height="50" x="-35.145" y="-25" transform="matrix(0.4841 -0.6554 -0.6554 -0.4841 405.727 1780.334)" overflow="visible"/>
	
		<use xlink:href="#_x32_"  width="70.289" height="50" x="-35.145" y="-25" transform="matrix(-0.8134 -0.0478 -0.0478 0.8134 1741.0728 1237.4871)" overflow="visible"/>
	
		<use xlink:href="#_x32_"  width="70.289" height="50" x="-35.145" y="-25" transform="matrix(-0.7971 0.169 0.169 0.7971 156.4624 1502.3116)" overflow="visible"/>
	
		<use xlink:href="#_x32_"  width="70.289" height="50" x="-35.145" y="-25" transform="matrix(0.302 0.7568 0.7568 -0.302 837.403 1173.6934)" overflow="visible"/>
	
		<use xlink:href="#_x32_"  width="70.289" height="50" x="-35.145" y="-25" transform="matrix(-0.7721 -0.2606 -0.2606 0.7721 394.425 104.4197)" overflow="visible"/>
	
		<use xlink:href="#_x32_"  width="70.289" height="50" x="-35.145" y="-25" transform="matrix(-0.8109 -0.0804 -0.0804 0.8109 180.189 94.3725)" overflow="visible"/>
	
		<use xlink:href="#_x32_"  width="70.289" height="50" x="-35.145" y="-25" transform="matrix(-0.7505 -0.3174 -0.3174 0.7505 1682.5145 1203.4615)" overflow="visible"/>
	
		<use xlink:href="#_x32_"  width="70.289" height="50" x="-35.145" y="-25" transform="matrix(0.5107 -0.6349 -0.6349 -0.5107 538.5237 520.8411)" overflow="visible"/>
	
		<use xlink:href="#_x32_"  width="70.289" height="50" x="-35.145" y="-25" transform="matrix(0.326 0.7468 0.7468 -0.326 1367.1345 711.9772)" overflow="visible"/>
	
		<use xlink:href="#_x32_"  width="70.289" height="50" x="-35.145" y="-25" transform="matrix(-0.1504 -0.8008 -0.8008 0.1504 2162.0803 436.5473)" overflow="visible"/>
	
		<use xlink:href="#_x32_"  width="70.289" height="50" x="-35.145" y="-25" transform="matrix(-0.1127 -0.807 -0.807 0.1127 1680.3625 623.3596)" overflow="visible"/>
	
		<use xlink:href="#_x32_"  width="70.289" height="50" x="-35.145" y="-25" transform="matrix(0.8025 -0.1413 -0.1413 -0.8025 254.7488 1767.011)" overflow="visible"/>
	
		<use xlink:href="#_x32_"  width="70.289" height="50" x="-35.145" y="-25" transform="matrix(0.1925 -0.7918 -0.7918 -0.1925 334.2694 1392.9254)" overflow="visible"/>
	
		<use xlink:href="#_x32_"  width="70.289" height="50" x="-35.145" y="-25" transform="matrix(0.7596 -0.295 -0.295 -0.7596 2013.7148 1366.9905)" overflow="visible"/>
	
		<use xlink:href="#_x32_"  width="70.289" height="50" x="-35.145" y="-25" transform="matrix(-0.1746 0.7959 0.7959 0.1746 323.9348 1837.5425)" overflow="visible"/>
	
		<use xlink:href="#_x32_"  width="70.289" height="50" x="-35.145" y="-25" transform="matrix(-0.7846 0.2201 0.2201 0.7846 841.2435 715.087)" overflow="visible"/>
	
		<use xlink:href="#_x32_"  width="70.289" height="50" x="-35.145" y="-25" transform="matrix(0.8146 -0.0205 -0.0205 -0.8146 2222.4773 448.7216)" overflow="visible"/>
	
		<use xlink:href="#_x32_"  width="70.289" height="50" x="-35.145" y="-25" transform="matrix(0.7537 -0.3098 -0.3098 -0.7537 126.8917 130.3751)" overflow="visible"/>
	
		<use xlink:href="#_x32_"  width="70.289" height="50" x="-35.145" y="-25" transform="matrix(0.7115 -0.3971 -0.3971 -0.7115 415.7886 1311.844)" overflow="visible"/>
	
		<use xlink:href="#_x32_"  width="70.289" height="50" x="-35.145" y="-25" transform="matrix(0.8117 -0.0713 -0.0713 -0.8117 620.0515 607.7886)" overflow="visible"/>
	
		<use xlink:href="#_x32_"  width="70.289" height="50" x="-35.145" y="-25" transform="matrix(-0.2291 0.782 0.782 0.2291 2350.0305 371.4732)" overflow="visible"/>
	
		<use xlink:href="#_x32_"  width="70.289" height="50" x="-35.145" y="-25" transform="matrix(0.7722 0.2601 0.2601 -0.7722 954.7195 716.9468)" overflow="visible"/>
	
		<use xlink:href="#_x32_"  width="70.289" height="50" x="-35.145" y="-25" transform="matrix(0.4478 0.6808 0.6808 -0.4478 61.8496 1667.4722)" overflow="visible"/>
	
		<use xlink:href="#_x32_"  width="70.289" height="50" x="-35.145" y="-25" transform="matrix(-0.7594 0.2954 0.2954 0.7594 1462.5146 999.9011)" overflow="visible"/>
	
		<use xlink:href="#_x32_"  width="70.289" height="50" x="-35.145" y="-25" transform="matrix(-0.5262 -0.6222 -0.6222 0.5262 1433.6715 1134.4191)" overflow="visible"/>
	
		<use xlink:href="#_x32_"  width="70.289" height="50" x="-35.145" y="-25" transform="matrix(-0.7633 0.2851 0.2851 0.7633 2204.6287 1638.4137)" overflow="visible"/>
	
		<use xlink:href="#_x32_"  width="70.289" height="50" x="-35.145" y="-25" transform="matrix(0.1478 -0.8013 -0.8013 -0.1478 2088.3875 1505.1003)" overflow="visible"/>
	
		<use xlink:href="#_x32_"  width="70.289" height="50" x="-35.145" y="-25" transform="matrix(0.8148 0.0065 0.0065 -0.8148 1974.9475 1474.1716)" overflow="visible"/>
	
		<use xlink:href="#_x32_"  width="70.289" height="50" x="-35.145" y="-25" transform="matrix(-0.5002 0.6433 0.6433 0.5002 488.5515 1286.4861)" overflow="visible"/>
	
		<use xlink:href="#_x32_"  width="70.289" height="50" x="-35.145" y="-25" transform="matrix(0.3075 0.7546 0.7546 -0.3075 1307.2789 1068.6433)" overflow="visible"/>
	
		<use xlink:href="#_x32_"  width="70.289" height="50" x="-35.145" y="-25" transform="matrix(-0.014 0.8147 0.8147 0.014 256.706 119.5338)" overflow="visible"/>
	
		<use xlink:href="#_x32_"  width="70.289" height="50" x="-35.145" y="-25" transform="matrix(0.7917 -0.1927 -0.1927 -0.7917 1762.8625 484.6069)" overflow="visible"/>
	
		<use xlink:href="#_x32_"  width="70.289" height="50" x="-35.145" y="-25" transform="matrix(0.1544 0.8001 0.8001 -0.1544 1801.3629 1196.6919)" overflow="visible"/>
	
		<use xlink:href="#_x32_"  width="70.289" height="50" x="-35.145" y="-25" transform="matrix(-0.7592 0.2959 0.2959 0.7592 1193.7363 901.5109)" overflow="visible"/>
	
		<use xlink:href="#_x32_"  width="70.289" height="50" x="-35.145" y="-25" transform="matrix(-0.7344 0.353 0.353 0.7344 141.6774 1427.6313)" overflow="visible"/>
	
		<use xlink:href="#_x32_"  width="70.289" height="50" x="-35.145" y="-25" transform="matrix(-0.8104 -0.0852 -0.0852 0.8104 2248.2612 1590.2455)" overflow="visible"/>
	
		<use xlink:href="#_x32_"  width="70.289" height="50" x="-35.145" y="-25" transform="matrix(0.6223 -0.5261 -0.5261 -0.6223 1300.0098 939.6324)" overflow="visible"/>
	
		<use xlink:href="#_x32_"  width="70.289" height="50" x="-35.145" y="-25" transform="matrix(0.3925 -0.7141 -0.7141 -0.3925 1874.8566 420.5808)" overflow="visible"/>
	
		<use xlink:href="#_x32_"  width="70.289" height="50" x="-35.145" y="-25" transform="matrix(-0.7874 -0.2097 -0.2097 0.7874 144.0106 203.0162)" overflow="visible"/>
	
		<use xlink:href="#_x32_"  width="70.289" height="50" x="-35.145" y="-25" transform="matrix(0.4357 0.6886 0.6886 -0.4357 2543.0447 261.4117)" overflow="visible"/>
	
		<use xlink:href="#_x32_"  width="70.289" height="50" x="-35.145" y="-25" transform="matrix(0.0245 -0.8145 -0.8145 -0.0245 621.0526 1533.7981)" overflow="visible"/>
	
		<use xlink:href="#_x32_"  width="70.289" height="50" x="-35.145" y="-25" transform="matrix(0.0524 -0.8132 -0.8132 -0.0524 1685.5729 1129.5784)" overflow="visible"/>
	
		<use xlink:href="#_x32_"  width="70.289" height="50" x="-35.145" y="-25" transform="matrix(0.6525 0.4881 0.4881 -0.6525 105.355 421.4348)" overflow="visible"/>
	
		<use xlink:href="#_x32_"  width="70.289" height="50" x="-35.145" y="-25" transform="matrix(0.4332 -0.6902 -0.6902 -0.4332 1254.4916 885.5746)" overflow="visible"/>
	
		<use xlink:href="#_x32_"  width="70.289" height="50" x="-35.145" y="-25" transform="matrix(-0.3118 -0.7528 -0.7528 0.3118 293.2696 483.3525)" overflow="visible"/>
	
		<use xlink:href="#_x32_"  width="70.289" height="50" x="-35.145" y="-25" transform="matrix(-0.2076 0.7879 0.7879 0.2076 1656.5975 778.5535)" overflow="visible"/>
	
		<use xlink:href="#_x32_"  width="70.289" height="50" x="-35.145" y="-25" transform="matrix(-0.5616 -0.5904 -0.5904 0.5616 452.8942 1828.1803)" overflow="visible"/>
	
		<use xlink:href="#_x32_"  width="70.289" height="50" x="-35.145" y="-25" transform="matrix(0.8146 0.0188 0.0188 -0.8146 666.0432 291.431)" overflow="visible"/>
	
		<use xlink:href="#_x32_"  width="70.289" height="50" x="-35.145" y="-25" transform="matrix(-0.3629 0.7296 0.7296 0.3629 2425.425 1605.1986)" overflow="visible"/>
	
		<use xlink:href="#_x32_"  width="70.289" height="50" x="-35.145" y="-25" transform="matrix(0.123 0.8055 0.8055 -0.123 1903.5039 537.2501)" overflow="visible"/>
	
		<use xlink:href="#_x32_"  width="70.289" height="50" x="-35.145" y="-25" transform="matrix(-0.3389 0.741 0.741 0.3389 1934.0065 389.0759)" overflow="visible"/>
	
		<use xlink:href="#_x32_"  width="70.289" height="50" x="-35.145" y="-25" transform="matrix(0.7279 -0.3662 -0.3662 -0.7279 2294.9255 1536.2804)" overflow="visible"/>
	
		<use xlink:href="#_x32_"  width="70.289" height="50" x="-35.145" y="-25" transform="matrix(0.5361 -0.6137 -0.6137 -0.5361 779.4163 645.3221)" overflow="visible"/>
	
		<use xlink:href="#_x32_"  width="70.289" height="50" x="-35.145" y="-25" transform="matrix(-0.7171 -0.387 -0.387 0.7171 566.5627 172.1483)" overflow="visible"/>
	
		<use xlink:href="#_x32_"  width="70.289" height="50" x="-35.145" y="-25" transform="matrix(0.4453 -0.6824 -0.6824 -0.4453 1551.5057 712.3932)" overflow="visible"/>
	
		<use xlink:href="#_x32_"  width="70.289" height="50" x="-35.145" y="-25" transform="matrix(-0.1232 -0.8055 -0.8055 0.1232 330.1403 1782.0305)" overflow="visible"/>
	
		<use xlink:href="#_x32_"  width="70.289" height="50" x="-35.145" y="-25" transform="matrix(0.3146 -0.7517 -0.7517 -0.3146 468.7216 488.287)" overflow="visible"/>
	
		<use xlink:href="#_x32_"  width="70.289" height="50" x="-35.145" y="-25" transform="matrix(0.6214 0.5271 0.5271 -0.6214 1373.2595 1089.0198)" overflow="visible"/>
	
		<use xlink:href="#_x32_"  width="70.289" height="50" x="-35.145" y="-25" transform="matrix(-0.0873 -0.8102 -0.8102 0.0873 938.1016 1026.6049)" overflow="visible"/>
	
		<use xlink:href="#_x32_"  width="70.289" height="50" x="-35.145" y="-25" transform="matrix(0.4515 0.6783 0.6783 -0.4515 2416.1025 277.275)" overflow="visible"/>
	
		<use xlink:href="#_x32_"  width="70.289" height="50" x="-35.145" y="-25" transform="matrix(0.1039 0.8082 0.8082 -0.1039 1625.9784 1165.2963)" overflow="visible"/>
	
		<use xlink:href="#_x32_"  width="70.289" height="50" x="-35.145" y="-25" transform="matrix(0.1092 -0.8075 -0.8075 -0.1092 535.8655 1334.0406)" overflow="visible"/>
	
		<use xlink:href="#_x32_"  width="70.289" height="50" x="-35.145" y="-25" transform="matrix(0.0919 0.8097 0.8097 -0.0919 38.8345 297.6789)" overflow="visible"/>
	
		<use xlink:href="#_x32_"  width="70.289" height="50" x="-35.145" y="-25" transform="matrix(-0.8057 -0.1221 -0.1221 0.8057 364.0122 49.6095)" overflow="visible"/>
	
		<use xlink:href="#_x32_"  width="70.289" height="50" x="-35.145" y="-25" transform="matrix(0.0121 -0.8148 -0.8148 -0.0121 832.7359 776.5595)" overflow="visible"/>
	
		<use xlink:href="#_x32_"  width="70.289" height="50" x="-35.145" y="-25" transform="matrix(-0.0816 0.8108 0.8108 0.0816 1996.7987 348.8442)" overflow="visible"/>
	
		<use xlink:href="#_x32_"  width="70.289" height="50" x="-35.145" y="-25" transform="matrix(-0.3412 0.74 0.74 0.3412 1628.4149 1097.4564)" overflow="visible"/>
	
		<use xlink:href="#_x32_"  width="70.289" height="50" x="-35.145" y="-25" transform="matrix(0.7561 0.3038 0.3038 -0.7561 2026.0944 1546.9076)" overflow="visible"/>
	
		<use xlink:href="#_x32_"  width="70.289" height="50" x="-35.145" y="-25" transform="matrix(-0.4649 -0.6692 -0.6692 0.4649 600.5395 114.2569)" overflow="visible"/>
	
		<use xlink:href="#_x32_"  width="70.289" height="50" x="-35.145" y="-25" transform="matrix(0.6472 -0.4951 -0.4951 -0.6472 610.4955 294.3711)" overflow="visible"/>
	
		<use xlink:href="#_x32_"  width="70.289" height="50" x="-35.145" y="-25" transform="matrix(0.4181 -0.6994 -0.6994 -0.4181 614.1304 1703.1821)" overflow="visible"/>
	
		<use xlink:href="#_x32_"  width="70.289" height="50" x="-35.145" y="-25" transform="matrix(0.2001 0.7899 0.7899 -0.2001 1825.6361 529.1453)" overflow="visible"/>
	
		<use xlink:href="#_x32_"  width="70.289" height="50" x="-35.145" y="-25" transform="matrix(0.7708 -0.2642 -0.2642 -0.7708 1140.9136 1019.6376)" overflow="visible"/>
	
		<use xlink:href="#_x32_"  width="70.289" height="50" x="-35.145" y="-25" transform="matrix(0.7732 -0.257 -0.257 -0.7732 2183.8699 255.2674)" overflow="visible"/>
	
		<use xlink:href="#_x32_"  width="70.289" height="50" x="-35.145" y="-25" transform="matrix(0.8148 0.0061 0.0061 -0.8148 2140.7158 1618.4224)" overflow="visible"/>
	
		<use xlink:href="#_x32_"  width="70.289" height="50" x="-35.145" y="-25" transform="matrix(0.5743 -0.5781 -0.5781 -0.5743 2479.0403 301.7951)" overflow="visible"/>
	
		<use xlink:href="#_x32_"  width="70.289" height="50" x="-35.145" y="-25" transform="matrix(0.0682 -0.812 -0.812 -0.0682 1027.1836 1003.7335)" overflow="visible"/>
	
		<use xlink:href="#_x32_"  width="70.289" height="50" x="-35.145" y="-25" transform="matrix(-0.7855 0.2166 0.2166 0.7855 781.9382 1145.584)" overflow="visible"/>
	
		<use xlink:href="#_x32_"  width="70.289" height="50" x="-35.145" y="-25" transform="matrix(-0.3525 -0.7347 -0.7347 0.3525 1843.1366 1448.5632)" overflow="visible"/>
	
		<use xlink:href="#_x32_"  width="70.289" height="50" x="-35.145" y="-25" transform="matrix(-0.2855 -0.7632 -0.7632 0.2855 629.7272 1754.8007)" overflow="visible"/>
	
		<use xlink:href="#_x32_"  width="70.289" height="50" x="-35.145" y="-25" transform="matrix(-0.7261 -0.3699 -0.3699 0.7261 671.8196 578.8864)" overflow="visible"/>
	
		<use xlink:href="#_x32_"  width="70.289" height="50" x="-35.145" y="-25" transform="matrix(0.7665 0.2765 0.2765 -0.7665 82.4352 173.8597)" overflow="visible"/>
	
		<use xlink:href="#_x32_"  width="70.289" height="50" x="-35.145" y="-25" transform="matrix(-0.1872 -0.793 -0.793 0.1872 627.3242 1589.5427)" overflow="visible"/>
	
		<use xlink:href="#_x32_"  width="70.289" height="50" x="-35.145" y="-25" transform="matrix(0.6611 -0.4764 -0.4764 -0.6611 575.1265 1380.6658)" overflow="visible"/>
	
		<use xlink:href="#_x32_"  width="70.289" height="50" x="-35.145" y="-25" transform="matrix(0.2883 -0.7621 -0.7621 -0.2883 1618.6638 1313.0658)" overflow="visible"/>
	
		<use xlink:href="#_x32_"  width="70.289" height="50" x="-35.145" y="-25" transform="matrix(-0.5398 -0.6104 -0.6104 0.5398 2349.7383 296.3519)" overflow="visible"/>
	
		<use xlink:href="#_x32_"  width="70.289" height="50" x="-35.145" y="-25" transform="matrix(-0.6823 -0.4455 -0.4455 0.6823 1492.7209 1246.9263)" overflow="visible"/>
	
		<use xlink:href="#_x32_"  width="70.289" height="50" x="-35.145" y="-25" transform="matrix(0.8092 -0.0954 -0.0954 -0.8092 1145.1841 946.6998)" overflow="visible"/>
	
		<use xlink:href="#_x32_"  width="70.289" height="50" x="-35.145" y="-25" transform="matrix(0.6649 0.4711 0.4711 -0.6649 642.9916 661.4994)" overflow="visible"/>
	
		<use xlink:href="#_x32_"  width="70.289" height="50" x="-35.145" y="-25" transform="matrix(-0.2977 0.7585 0.7585 0.2977 687.8929 197.1779)" overflow="visible"/>
	
		<use xlink:href="#_x32_"  width="70.289" height="50" x="-35.145" y="-25" transform="matrix(-0.5983 0.5532 0.5532 0.5983 495.996 603.7418)" overflow="visible"/>
	
		<use xlink:href="#_x32_"  width="70.289" height="50" x="-35.145" y="-25" transform="matrix(0.7198 -0.3819 -0.3819 -0.7198 1373.7468 1171.127)" overflow="visible"/>
	
		<use xlink:href="#_x32_"  width="70.289" height="50" x="-35.145" y="-25" transform="matrix(-0.7162 0.3886 0.3886 0.7162 551.3234 575.4496)" overflow="visible"/>
	
		<use xlink:href="#_x32_"  width="70.289" height="50" x="-35.145" y="-25" transform="matrix(0.0649 0.8123 0.8123 -0.0649 274.7985 1352.7468)" overflow="visible"/>
	
		<use xlink:href="#_x32_"  width="70.289" height="50" x="-35.145" y="-25" transform="matrix(-0.6336 0.5124 0.5124 0.6336 484.7699 1761.2062)" overflow="visible"/>
	
		<use xlink:href="#_x32_"  width="70.289" height="50" x="-35.145" y="-25" transform="matrix(0.5555 -0.5962 -0.5962 -0.5555 1987.5126 412.9879)" overflow="visible"/>
	
		<use xlink:href="#_x32_"  width="70.289" height="50" x="-35.145" y="-25" transform="matrix(-0.4916 0.6499 0.6499 0.4916 93.4392 1480.9673)" overflow="visible"/>
	
		<use xlink:href="#_x32_"  width="70.289" height="50" x="-35.145" y="-25" transform="matrix(-0.5533 -0.5982 -0.5982 0.5533 647.293 235.6467)" overflow="visible"/>
	
		<use xlink:href="#_x32_"  width="70.289" height="50" x="-35.145" y="-25" transform="matrix(0.8127 -0.059 -0.059 -0.8127 608.3469 546.3652)" overflow="visible"/>
	
		<use xlink:href="#_x32_"  width="70.289" height="50" x="-35.145" y="-25" transform="matrix(0.7221 -0.3775 -0.3775 -0.7221 50.2095 1605.5013)" overflow="visible"/>
	
		<use xlink:href="#_x32_"  width="70.289" height="50" x="-35.145" y="-25" transform="matrix(0.7896 -0.2013 -0.2013 -0.7896 1743.9108 1167.01)" overflow="visible"/>
	
		<use xlink:href="#_x32_"  width="70.289" height="50" x="-35.145" y="-25" transform="matrix(0.6644 -0.4718 -0.4718 -0.6644 138.7228 1769.3032)" overflow="visible"/>
	
		<use xlink:href="#_x32_"  width="70.289" height="50" x="-35.145" y="-25" transform="matrix(-0.6232 0.525 0.525 0.6232 596.539 220.1629)" overflow="visible"/>
	
		<use xlink:href="#_x32_"  width="70.289" height="50" x="-35.145" y="-25" transform="matrix(0.755 0.3064 0.3064 -0.755 196.4834 1800.7943)" overflow="visible"/>
	
		<use xlink:href="#_x32_"  width="70.289" height="50" x="-35.145" y="-25" transform="matrix(0.4876 0.6529 0.6529 -0.4876 2129.4243 1384.7738)" overflow="visible"/>
	
		<use xlink:href="#_x32_"  width="70.289" height="50" x="-35.145" y="-25" transform="matrix(0.6269 -0.5206 -0.5206 -0.6269 837.422 1109.0939)" overflow="visible"/>
	
		<use xlink:href="#_x32_"  width="70.289" height="50" x="-35.145" y="-25" transform="matrix(-0.6318 0.5146 0.5146 0.6318 1358.194 948.6507)" overflow="visible"/>
	
		<use xlink:href="#_x32_"  width="70.289" height="50" x="-35.145" y="-25" transform="matrix(0.2508 -0.7753 -0.7753 -0.2508 1385.2594 829.5175)" overflow="visible"/>
	
		<use xlink:href="#_x32_"  width="70.289" height="50" x="-35.145" y="-25" transform="matrix(-0.7217 0.3782 0.3782 0.7217 639.8808 433.5928)" overflow="visible"/>
	
		<use xlink:href="#_x32_"  width="70.289" height="50" x="-35.145" y="-25" transform="matrix(0.8132 0.0513 0.0513 -0.8132 2162.5422 1505.5905)" overflow="visible"/>
	
		<use xlink:href="#_x32_"  width="70.289" height="50" x="-35.145" y="-25" transform="matrix(0.4114 0.7034 0.7034 -0.4114 2124.7722 279.2745)" overflow="visible"/>
	
		<use xlink:href="#_x32_"  width="70.289" height="50" x="-35.145" y="-25" transform="matrix(8.286095e-04 0.8148 0.8148 -8.286095e-04 1390.0881 890.6539)" overflow="visible"/>
	
		<use xlink:href="#_x32_"  width="70.289" height="50" x="-35.145" y="-25" transform="matrix(-0.4582 -0.6738 -0.6738 0.4582 1964.7347 534.7279)" overflow="visible"/>
	
		<use xlink:href="#_x32_"  width="70.289" height="50" x="-35.145" y="-25" transform="matrix(0.6403 0.5039 0.5039 -0.6403 1487.5536 709.9435)" overflow="visible"/>
	
		<use xlink:href="#_x32_"  width="70.289" height="50" x="-35.145" y="-25" transform="matrix(0.0259 0.8144 0.8144 -0.0259 1082.3149 905.9587)" overflow="visible"/>
	
		<use xlink:href="#_x32_"  width="70.289" height="50" x="-35.145" y="-25" transform="matrix(0.6501 0.4913 0.4913 -0.6501 887.6505 1066.6572)" overflow="visible"/>
	
		<use xlink:href="#_x32_"  width="70.289" height="50" x="-35.145" y="-25" transform="matrix(-0.6211 0.5275 0.5275 0.6211 1415.5946 954.8299)" overflow="visible"/>
	
		<use xlink:href="#_x32_"  width="70.289" height="50" x="-35.145" y="-25" transform="matrix(-0.5715 0.5808 0.5808 0.5715 516.3917 136.7794)" overflow="visible"/>
	
		<use xlink:href="#_x32_"  width="70.289" height="50" x="-35.145" y="-25" transform="matrix(-0.787 -0.2112 -0.2112 0.787 243.0288 459.7393)" overflow="visible"/>
	
		<use xlink:href="#_x32_"  width="70.289" height="50" x="-35.145" y="-25" transform="matrix(0.0054 0.8148 0.8148 -0.0054 618.6559 1249.7672)" overflow="visible"/>
	
		<use xlink:href="#_x32_"  width="70.289" height="50" x="-35.145" y="-25" transform="matrix(0.7245 -0.3729 -0.3729 -0.7245 1011.1575 867.886)" overflow="visible"/>
	
		<use xlink:href="#_x32_"  width="70.289" height="50" x="-35.145" y="-25" transform="matrix(0.803 0.1387 0.1387 -0.803 479.6703 544.3786)" overflow="visible"/>
	
		<use xlink:href="#_x32_"  width="70.289" height="50" x="-35.145" y="-25" transform="matrix(0.7556 0.3051 0.3051 -0.7556 709.9877 257.4751)" overflow="visible"/>
	
		<use xlink:href="#_x32_"  width="70.289" height="50" x="-35.145" y="-25" transform="matrix(-0.7112 0.3978 0.3978 0.7112 2195.3933 1415.2085)" overflow="visible"/>
	
		<use xlink:href="#_x32_"  width="70.289" height="50" x="-35.145" y="-25" transform="matrix(0.6432 -0.5003 -0.5003 -0.6432 1732.2566 1377.7229)" overflow="visible"/>
	
		<use xlink:href="#_x32_"  width="70.289" height="50" x="-35.145" y="-25" transform="matrix(-0.6636 -0.4729 -0.4729 0.6636 1944.0295 1317.8075)" overflow="visible"/>
	
		<use xlink:href="#_x32_"  width="70.289" height="50" x="-35.145" y="-25" transform="matrix(-0.8148 0.004 0.004 0.8148 1016.0263 807.3051)" overflow="visible"/>
	
		<use xlink:href="#_x32_"  width="70.289" height="50" x="-35.145" y="-25" transform="matrix(0.7654 0.2796 0.2796 -0.7654 1498.2903 1100.3162)" overflow="visible"/>
	
		<use xlink:href="#_x32_"  width="70.289" height="50" x="-35.145" y="-25" transform="matrix(0.195 0.7912 0.7912 -0.195 695.8406 1547.9541)" overflow="visible"/>
	
		<use xlink:href="#_x32_"  width="70.289" height="50" x="-35.145" y="-25" transform="matrix(-0.3 -0.7576 -0.7576 0.3 387.0124 1836.1631)" overflow="visible"/>
	
		<use xlink:href="#_x32_"  width="70.289" height="50" x="-35.145" y="-25" transform="matrix(-0.5748 0.5776 0.5776 0.5748 411.9605 1385.446)" overflow="visible"/>
	
		<use xlink:href="#_x32_"  width="70.289" height="50" x="-35.145" y="-25" transform="matrix(0.713 0.3945 0.3945 -0.713 1951.6793 1375.1505)" overflow="visible"/>
	
		<use xlink:href="#_x32_"  width="70.289" height="50" x="-35.145" y="-25" transform="matrix(-0.648 -0.494 -0.494 0.648 651.9688 349.3862)" overflow="visible"/>
	
		<use xlink:href="#_x32_"  width="70.289" height="50" x="-35.145" y="-25" transform="matrix(-0.4801 -0.6584 -0.6584 0.4801 656.3953 1643.2421)" overflow="visible"/>
	
		<use xlink:href="#_x32_"  width="70.289" height="50" x="-35.145" y="-25" transform="matrix(-0.4229 0.6965 0.6965 0.4229 492.818 1401.1104)" overflow="visible"/>
	
		<use xlink:href="#_x32_"  width="70.289" height="50" x="-35.145" y="-25" transform="matrix(0.8124 0.0625 0.0625 -0.8124 1497.895 777.3734)" overflow="visible"/>
	
		<use xlink:href="#_x32_"  width="70.289" height="50" x="-35.145" y="-25" transform="matrix(-0.576 0.5763 0.5763 0.576 577.1276 421.1623)" overflow="visible"/>
	
		<use xlink:href="#_x32_"  width="70.289" height="50" x="-35.145" y="-25" transform="matrix(-0.7974 -0.1679 -0.1679 0.7974 682.5435 1697.3469)" overflow="visible"/>
	
		<use xlink:href="#_x32_"  width="70.289" height="50" x="-35.145" y="-25" transform="matrix(0.8148 0.0089 0.0089 -0.8148 955.0054 796.1168)" overflow="visible"/>
	
		<use xlink:href="#_x32_"  width="70.289" height="50" x="-35.145" y="-25" transform="matrix(-0.6381 0.5068 0.5068 0.6381 1868.0364 584.3204)" overflow="visible"/>
	
		<use xlink:href="#_x32_"  width="70.289" height="50" x="-35.145" y="-25" transform="matrix(0.5298 0.6191 0.6191 -0.5298 2152.9858 494.327)" overflow="visible"/>
	
		<use xlink:href="#_x32_"  width="70.289" height="50" x="-35.145" y="-25" transform="matrix(-0.127 0.8049 0.8049 0.127 432.3181 51.9838)" overflow="visible"/>
	
		<use xlink:href="#_x32_"  width="70.289" height="50" x="-35.145" y="-25" transform="matrix(-0.6217 0.5267 0.5267 0.6217 2362.4736 1584.5621)" overflow="visible"/>
</g>
</svg>
